<?xml version="1.0" encoding="utf-8" ?>
<svg baseProfile="full" height="1300" version="1.1" width="2200" xmlns="http://www.w3.org/2000/svg" xmlns:ev="http://www.w3.org/2001/xml-events" xmlns:xlink="http://www.w3.org/1999/xlink"><defs /><rect fill="white" height="1300" width="2200" x="0" y="0" /><rect fill="none" height="1180" stroke="black" stroke-width="4" width="2080" x="60" y="60" /><rect fill="#f5f5f5" height="260" stroke="none" width="2040" x="80" y="920" /><rect fill="none" height="230" stroke="black" stroke-width="1" width="90" x="100" y="945" /><text font-size="12px" x="110" y="965">BAY 1</text><rect fill="none" height="230" stroke="black" stroke-width="1" width="90" x="200" y="945" /><text font-size="12px" x="210" y="965">BAY 2</text><rect fill="none" height="230" stroke="black" stroke-width="1" width="90" x="300" y="945" /><text font-size="12px" x="310" y="965">BAY 3</text><rect fill="none" height="230" stroke="black" stroke-width="1" width="90" x="400" y="945" /><text font-size="12px" x="410" y="965">BAY 4</text><rect fill="none" height="230" stroke="black" stroke-width="1" width="90" x="500" y="945" /><text font-size="12px" x="510" y="965">BAY 5</text><rect fill="none" height="230" stroke="black" stroke-width="1" width="90" x="600" y="945" /><text font-size="12px" x="610" y="965">BAY 6</text><rect fill="none" height="230" stroke="black" stroke-width="1" width="90" x="700" y="945" /><text font-size="12px" x="710" y="965">BAY 7</text><rect fill="none" height="230" stroke="black" stroke-width="1" width="90" x="800" y="945" /><text font-size="12px" x="810" y="965">BAY 8</text><rect fill="none" height="230" stroke="black" stroke-width="1" width="90" x="900" y="945" /><text font-size="12px" x="910" y="965">BAY 9</text><rect fill="none" height="230" stroke="black" stroke-width="1" width="90" x="1000" y="945" /><text font-size="12px" x="1010" y="965">BAY 10</text><rect fill="none" height="230" stroke="black" stroke-width="1" width="90" x="1100" y="945" /><text font-size="12px" x="1110" y="965">BAY 11</text><rect fill="none" height="230" stroke="black" stroke-width="1" width="90" x="1200" y="945" /><text font-size="12px" x="1210" y="965">BAY 12</text><rect fill="none" height="230" stroke="black" stroke-width="1" width="90" x="1300" y="945" /><text font-size="12px" x="1310" y="965">BAY 13</text><rect fill="none" height="230" stroke="black" stroke-width="1" width="90" x="1400" y="945" /><text font-size="12px" x="1410" y="965">BAY 14</text><rect fill="none" height="230" stroke="black" stroke-width="1" width="90" x="1500" y="945" /><text font-size="12px" x="1510" y="965">BAY 15</text><rect fill="none" height="230" stroke="black" stroke-width="1" width="90" x="1600" y="945" /><text font-size="12px" x="1610" y="965">BAY 16</text><rect fill="none" height="280" stroke="black" stroke-width="2" width="600" x="80" y="80" /><text font-size="16px" x="90" y="70">CUSTOMER / OFFICE ZONE</text><rect fill="none" height="280" stroke="black" stroke-width="2" width="750" x="720" y="80" /><text font-size="16px" x="730" y="70">PARTS / STORAGE / FLUIDS ZONE</text><rect fill="none" height="110" stroke="#8d6e63" stroke-width="2" width="150" x="520" y="240" /><text font-size="12px" x="530" y="260">RESTROOM</text><circle cx="550" cy="290" fill="none" r="8" stroke="#5d4037" stroke-width="2" /><text fill="#5d4037" font-size="10px" x="538" y="312">WC</text><circle cx="600" cy="290" fill="none" r="8" stroke="#5d4037" stroke-width="2" /><text fill="#5d4037" font-size="10px" x="588" y="312">WC</text><rect fill="none" height="12" stroke="#5d4037" stroke-width="2" width="20" x="540" y="324" /><text fill="#5d4037" font-size="10px" x="536" y="348">LAV</text><rect fill="none" height="12" stroke="#5d4037" stroke-width="2" width="20" x="590" y="324" /><text fill="#5d4037" font-size="10px" x="586" y="348">LAV</text><circle cx="780" cy="280" fill="none" r="18" stroke="#1565c0" stroke-width="2" /><text fill="#1565c0" font-size="10px" x="770" y="285">WH</text><line stroke="#1565c0" stroke-width="3" x1="100" x2="2100" y1="70" y2="70" /><text fill="#1565c0" font-size="12px" x="110" y="60">COLD WATER MAIN</text><line stroke="#1565c0" stroke-width="2" x1="600" x2="600" y1="70" y2="240" /><line stroke="#1565c0" stroke-width="2" x1="780" x2="780" y1="70" y2="262" /><circle cx="145.0" cy="1155" fill="none" r="6" stroke="#00897b" stroke-width="2" /><text fill="#00897b" font-size="10px" x="135.0" y="1173">FD</text><circle cx="445.0" cy="1155" fill="none" r="6" stroke="#00897b" stroke-width="2" /><text fill="#00897b" font-size="10px" x="435.0" y="1173">FD</text><circle cx="745.0" cy="1155" fill="none" r="6" stroke="#00897b" stroke-width="2" /><text fill="#00897b" font-size="10px" x="735.0" y="1173">FD</text><circle cx="1045.0" cy="1155" fill="none" r="6" stroke="#00897b" stroke-width="2" /><text fill="#00897b" font-size="10px" x="1035.0" y="1173">FD</text><circle cx="1345.0" cy="1155" fill="none" r="6" stroke="#00897b" stroke-width="2" /><text fill="#00897b" font-size="10px" x="1335.0" y="1173">FD</text><circle cx="1645.0" cy="1155" fill="none" r="6" stroke="#00897b" stroke-width="2" /><text fill="#00897b" font-size="10px" x="1635.0" y="1173">FD</text><text font-size="24px" x="80" y="1270">PLUMBING PLAN</text></svg>