<?xml version="1.0" encoding="utf-8" ?>
<svg baseProfile="full" height="900" version="1.1" width="2200" xmlns="http://www.w3.org/2000/svg" xmlns:ev="http://www.w3.org/2001/xml-events" xmlns:xlink="http://www.w3.org/1999/xlink"><defs /><rect fill="#e3f2fd" height="900" width="2200" x="0" y="0" /><rect fill="#cfd8dc" height="120" width="2200" x="0" y="780" /><rect fill="#eceff1" height="320" stroke="#37474f" stroke-width="3" width="2080" x="60" y="460" /><rect fill="#455a64" height="40" width="2080" x="60" y="420" /><text fill="#ffffff" font-size="28px" x="140" y="450">COMBINATION AUTOMOTIVE DIESEL MECHANICS FACILITY</text><rect fill="#fafafa" height="220" stroke="#455a64" stroke-width="2" width="260" x="140" y="560" /><rect fill="#bbdefb" height="120" stroke="#1e88e5" stroke-width="2" width="40" x="220" y="640" /><rect fill="#bbdefb" height="120" stroke="#1e88e5" stroke-width="2" width="40" x="260" y="640" /><text fill="#37474f" font-size="18px" x="160" y="620">CUSTOMER ENTRANCE</text><rect fill="#bbdefb" height="30" stroke="#1e88e5" stroke-width="2" width="50" x="160" y="580" /><rect fill="#bbdefb" height="30" stroke="#1e88e5" stroke-width="2" width="50" x="230" y="580" /><rect fill="#bbdefb" height="30" stroke="#1e88e5" stroke-width="2" width="50" x="300" y="580" /><rect fill="#eceff1" height="200" stroke="#607d8b" stroke-width="2" width="120" x="510" y="580" /><line stroke="#b0bec5" stroke-width="2" x1="515" x2="625" y1="600" y2="600" /><line stroke="#b0bec5" stroke-width="2" x1="515" x2="625" y1="640" y2="640" /><line stroke="#b0bec5" stroke-width="2" x1="515" x2="625" y1="680" y2="680" /><line stroke="#b0bec5" stroke-width="2" x1="515" x2="625" y1="720" y2="720" /><text fill="#37474f" font-size="14px" x="535" y="570">BAY 1</text><rect fill="#eceff1" height="200" stroke="#607d8b" stroke-width="2" width="120" x="640" y="580" /><line stroke="#b0bec5" stroke-width="2" x1="645" x2="755" y1="600" y2="600" /><line stroke="#b0bec5" stroke-width="2" x1="645" x2="755" y1="640" y2="640" /><line stroke="#b0bec5" stroke-width="2" x1="645" x2="755" y1="680" y2="680" /><line stroke="#b0bec5" stroke-width="2" x1="645" x2="755" y1="720" y2="720" /><text fill="#37474f" font-size="14px" x="665" y="570">BAY 2</text><rect fill="#eceff1" height="200" stroke="#607d8b" stroke-width="2" width="120" x="770" y="580" /><line stroke="#b0bec5" stroke-width="2" x1="775" x2="885" y1="600" y2="600" /><line stroke="#b0bec5" stroke-width="2" x1="775" x2="885" y1="640" y2="640" /><line stroke="#b0bec5" stroke-width="2" x1="775" x2="885" y1="680" y2="680" /><line stroke="#b0bec5" stroke-width="2" x1="775" x2="885" y1="720" y2="720" /><text fill="#37474f" font-size="14px" x="795" y="570">BAY 3</text><rect fill="#eceff1" height="200" stroke="#607d8b" stroke-width="2" width="120" x="900" y="580" /><line stroke="#b0bec5" stroke-width="2" x1="905" x2="1015" y1="600" y2="600" /><line stroke="#b0bec5" stroke-width="2" x1="905" x2="1015" y1="640" y2="640" /><line stroke="#b0bec5" stroke-width="2" x1="905" x2="1015" y1="680" y2="680" /><line stroke="#b0bec5" stroke-width="2" x1="905" x2="1015" y1="720" y2="720" /><text fill="#37474f" font-size="14px" x="925" y="570">BAY 4</text><rect fill="#eceff1" height="200" stroke="#607d8b" stroke-width="2" width="120" x="1030" y="580" /><line stroke="#b0bec5" stroke-width="2" x1="1035" x2="1145" y1="600" y2="600" /><line stroke="#b0bec5" stroke-width="2" x1="1035" x2="1145" y1="640" y2="640" /><line stroke="#b0bec5" stroke-width="2" x1="1035" x2="1145" y1="680" y2="680" /><line stroke="#b0bec5" stroke-width="2" x1="1035" x2="1145" y1="720" y2="720" /><text fill="#37474f" font-size="14px" x="1055" y="570">BAY 5</text><rect fill="#eceff1" height="200" stroke="#607d8b" stroke-width="2" width="120" x="1160" y="580" /><line stroke="#b0bec5" stroke-width="2" x1="1165" x2="1275" y1="600" y2="600" /><line stroke="#b0bec5" stroke-width="2" x1="1165" x2="1275" y1="640" y2="640" /><line stroke="#b0bec5" stroke-width="2" x1="1165" x2="1275" y1="680" y2="680" /><line stroke="#b0bec5" stroke-width="2" x1="1165" x2="1275" y1="720" y2="720" /><text fill="#37474f" font-size="14px" x="1185" y="570">BAY 6</text><rect fill="#eceff1" height="200" stroke="#607d8b" stroke-width="2" width="120" x="1290" y="580" /><line stroke="#b0bec5" stroke-width="2" x1="1295" x2="1405" y1="600" y2="600" /><line stroke="#b0bec5" stroke-width="2" x1="1295" x2="1405" y1="640" y2="640" /><line stroke="#b0bec5" stroke-width="2" x1="1295" x2="1405" y1="680" y2="680" /><line stroke="#b0bec5" stroke-width="2" x1="1295" x2="1405" y1="720" y2="720" /><text fill="#37474f" font-size="14px" x="1315" y="570">BAY 7</text><rect fill="#eceff1" height="200" stroke="#607d8b" stroke-width="2" width="120" x="1420" y="580" /><line stroke="#b0bec5" stroke-width="2" x1="1425" x2="1535" y1="600" y2="600" /><line stroke="#b0bec5" stroke-width="2" x1="1425" x2="1535" y1="640" y2="640" /><line stroke="#b0bec5" stroke-width="2" x1="1425" x2="1535" y1="680" y2="680" /><line stroke="#b0bec5" stroke-width="2" x1="1425" x2="1535" y1="720" y2="720" /><text fill="#37474f" font-size="14px" x="1445" y="570">BAY 8</text><text fill="#263238" font-size="22px" x="510" y="500">SERVICE DEPARTMENT</text><rect fill="#b0bec5" height="50" stroke="#455a64" stroke-width="2" width="90" x="100" y="790" /><rect fill="#b0bec5" height="50" stroke="#455a64" stroke-width="2" width="90" x="220" y="790" /><rect fill="#b0bec5" height="50" stroke="#455a64" stroke-width="2" width="90" x="340" y="790" /><rect fill="#b0bec5" height="50" stroke="#455a64" stroke-width="2" width="90" x="460" y="790" /><rect fill="#b0bec5" height="50" stroke="#455a64" stroke-width="2" width="90" x="580" y="790" /><rect fill="#b0bec5" height="50" stroke="#455a64" stroke-width="2" width="90" x="700" y="790" /><text fill="#37474f" font-size="16px" x="100" y="780">CUSTOMER PARKING</text><rect fill="#b0bec5" height="60" stroke="none" width="1120" x="470" y="790" /><text fill="#263238" font-size="16px" x="510" y="830">SERVICE DRIVE</text><rect fill="#6d4c41" height="40" width="14" x="2078" y="530" /><circle cx="2085" cy="520" fill="#81c784" r="30" stroke="#388e3c" stroke-width="2" /><rect fill="#6d4c41" height="40" width="14" x="2078" y="610" /><circle cx="2085" cy="600" fill="#81c784" r="30" stroke="#388e3c" stroke-width="2" /><rect fill="#6d4c41" height="40" width="14" x="2078" y="690" /><circle cx="2085" cy="680" fill="#81c784" r="30" stroke="#388e3c" stroke-width="2" /><rect fill="#6d4c41" height="40" width="14" x="2078" y="770" /><circle cx="2085" cy="760" fill="#81c784" r="30" stroke="#388e3c" stroke-width="2" /><text fill="#37474f" font-size="18px" x="80" y="880">STREET FRONTAGE</text></svg>