<?xml version="1.0" encoding="utf-8" standalone="no"?>
<!DOCTYPE svg PUBLIC "-//W3C//DTD SVG 1.1//EN"
  "http://www.w3.org/Graphics/SVG/1.1/DTD/svg11.dtd">
<svg xmlns:xlink="http://www.w3.org/1999/xlink" width="334.8pt" height="202.830291pt" viewBox="0 0 334.8 202.830291" xmlns="http://www.w3.org/2000/svg" version="1.1">
 <metadata>
  <rdf:RDF xmlns:dc="http://purl.org/dc/elements/1.1/" xmlns:cc="http://creativecommons.org/ns#" xmlns:rdf="http://www.w3.org/1999/02/22-rdf-syntax-ns#">
   <cc:Work>
    <dc:type rdf:resource="http://purl.org/dc/dcmitype/StillImage"/>
    <dc:date>2026-01-26T19:36:41.017968</dc:date>
    <dc:format>image/svg+xml</dc:format>
    <dc:creator>
     <cc:Agent>
      <dc:title>Matplotlib v3.10.8, https://matplotlib.org/</dc:title>
     </cc:Agent>
    </dc:creator>
   </cc:Work>
  </rdf:RDF>
 </metadata>
 <defs>
  <style type="text/css">*{stroke-linejoin: round; stroke-linecap: butt}</style>
 </defs>
 <g id="figure_1">
  <g id="patch_1">
   <path d="M 0 202.830291 
L 334.8 202.830291 
L 334.8 0 
L 0 0 
z
" style="fill: #ffffff"/>
  </g>
  <g id="axes_1">
   <g id="LineCollection_1">
    <path d="M 15.814862 198.929709 
L 328.361538 198.929709 
L 328.361538 11.401703 
L 15.814862 11.401703 
L 15.814862 198.929709 
" clip-path="url(#pe417d20563)" style="fill: none; stroke: #000000; stroke-width: 0.6"/>
    <path d="M 23.628529 191.116042 
L 58.008663 191.116042 
L 58.008663 128.606706 
L 23.628529 128.606706 
L 23.628529 191.116042 
" clip-path="url(#pe417d20563)" style="fill: none; stroke: #000000; stroke-width: 0.6"/>
    <path d="M 61.13413 191.116042 
L 95.514264 191.116042 
L 95.514264 128.606706 
L 61.13413 128.606706 
L 61.13413 191.116042 
" clip-path="url(#pe417d20563)" style="fill: none; stroke: #000000; stroke-width: 0.6"/>
    <path d="M 98.639731 191.116042 
L 133.019866 191.116042 
L 133.019866 128.606706 
L 98.639731 128.606706 
L 98.639731 191.116042 
" clip-path="url(#pe417d20563)" style="fill: none; stroke: #000000; stroke-width: 0.6"/>
    <path d="M 136.145332 191.116042 
L 170.525467 191.116042 
L 170.525467 128.606706 
L 136.145332 128.606706 
L 136.145332 191.116042 
" clip-path="url(#pe417d20563)" style="fill: none; stroke: #000000; stroke-width: 0.6"/>
    <path d="M 173.650934 191.116042 
L 208.031068 191.116042 
L 208.031068 128.606706 
L 173.650934 128.606706 
L 173.650934 191.116042 
" clip-path="url(#pe417d20563)" style="fill: none; stroke: #000000; stroke-width: 0.6"/>
    <path d="M 211.156535 191.116042 
L 245.536669 191.116042 
L 245.536669 128.606706 
L 211.156535 128.606706 
L 211.156535 191.116042 
" clip-path="url(#pe417d20563)" style="fill: none; stroke: #000000; stroke-width: 0.6"/>
    <path d="M 248.662136 191.116042 
L 283.04227 191.116042 
L 283.04227 128.606706 
L 248.662136 128.606706 
L 248.662136 191.116042 
" clip-path="url(#pe417d20563)" style="fill: none; stroke: #000000; stroke-width: 0.6"/>
    <path d="M 286.167737 191.116042 
L 320.547872 191.116042 
L 320.547872 128.606706 
L 286.167737 128.606706 
L 286.167737 191.116042 
" clip-path="url(#pe417d20563)" style="fill: none; stroke: #000000; stroke-width: 0.6"/>
    <path d="M 23.628529 112.979373 
L 70.51053 112.979373 
L 70.51053 19.21537 
L 23.628529 19.21537 
L 23.628529 112.979373 
" clip-path="url(#pe417d20563)" style="fill: none; stroke: #000000; stroke-width: 0.6"/>
    <path d="M 76.761464 112.979373 
L 123.643465 112.979373 
L 123.643465 19.21537 
L 76.761464 19.21537 
L 76.761464 112.979373 
" clip-path="url(#pe417d20563)" style="fill: none; stroke: #000000; stroke-width: 0.6"/>
    <path d="M 129.894399 112.979373 
L 176.7764 112.979373 
L 176.7764 19.21537 
L 129.894399 19.21537 
L 129.894399 112.979373 
" clip-path="url(#pe417d20563)" style="fill: none; stroke: #000000; stroke-width: 0.6"/>
    <path d="M 183.027334 112.979373 
L 229.909335 112.979373 
L 229.909335 19.21537 
L 183.027334 19.21537 
L 183.027334 112.979373 
" clip-path="url(#pe417d20563)" style="fill: none; stroke: #000000; stroke-width: 0.6"/>
    <path d="M 250.224869 183.302375 
L 265.852203 183.302375 
L 265.852203 173.925975 
L 250.224869 173.925975 
L 250.224869 183.302375 
" clip-path="url(#pe417d20563)" style="fill: none; stroke: #000000; stroke-width: 0.6"/>
    <path d="M 22.065795 3.900583 
L 6.438462 50.782584 
L 37.693129 50.782584 
L 22.065795 3.900583 
" clip-path="url(#pe417d20563)" style="fill: none; stroke: #000000; stroke-width: 0.6"/>
   </g>
  </g>
 </g>
 <defs>
  <clipPath id="pe417d20563">
   <rect x="0" y="0" width="334.8" height="202.830291"/>
  </clipPath>
 </defs>
</svg>
