<?xml version="1.0" encoding="utf-8" standalone="no"?>
<!DOCTYPE svg PUBLIC "-//W3C//DTD SVG 1.1//EN"
  "http://www.w3.org/Graphics/SVG/1.1/DTD/svg11.dtd">
<svg xmlns:xlink="http://www.w3.org/1999/xlink" width="446.4pt" height="297.6pt" viewBox="0 0 446.4 297.6" xmlns="http://www.w3.org/2000/svg" version="1.1">
 <metadata>
  <rdf:RDF xmlns:dc="http://purl.org/dc/elements/1.1/" xmlns:cc="http://creativecommons.org/ns#" xmlns:rdf="http://www.w3.org/1999/02/22-rdf-syntax-ns#">
   <cc:Work>
    <dc:type rdf:resource="http://purl.org/dc/dcmitype/StillImage"/>
    <dc:date>2026-01-26T12:56:13.208174</dc:date>
    <dc:format>image/svg+xml</dc:format>
    <dc:creator>
     <cc:Agent>
      <dc:title>Matplotlib v3.10.8, https://matplotlib.org/</dc:title>
     </cc:Agent>
    </dc:creator>
   </cc:Work>
  </rdf:RDF>
 </metadata>
 <defs>
  <style type="text/css">*{stroke-linejoin: round; stroke-linecap: butt}</style>
 </defs>
 <g id="figure_1">
  <g id="patch_1">
   <path d="M 0 297.6 
L 446.4 297.6 
L 446.4 -0 
L 0 -0 
z
" style="fill: #ffffff"/>
  </g>
  <g id="axes_1">
   <g id="patch_2">
    <path d="M 51.522 219.48 
L 70.122 219.48 
L 70.122 208.32 
L 51.522 208.32 
z
" clip-path="url(#p1fe9249936)" style="fill: #ff0000; opacity: 0.9; stroke: #000000; stroke-width: 0.6; stroke-linejoin: miter"/>
   </g>
   <g id="patch_3">
    <path d="M 63.798 219.48 
L 82.398 219.48 
L 82.398 208.32 
L 63.798 208.32 
z
" clip-path="url(#p1fe9249936)" style="fill: #0000ff; opacity: 0.9; stroke: #000000; stroke-width: 0.6; stroke-linejoin: miter"/>
   </g>
   <g id="patch_4">
    <path d="M 56.73 107.88 
L 75.33 107.88 
L 75.33 96.72 
L 56.73 96.72 
z
" clip-path="url(#p1fe9249936)" style="fill: #ff0000; opacity: 0.9; stroke: #000000; stroke-width: 0.6; stroke-linejoin: miter"/>
   </g>
   <g id="patch_5">
    <path d="M 73.47 107.88 
L 92.07 107.88 
L 92.07 96.72 
L 73.47 96.72 
z
" clip-path="url(#p1fe9249936)" style="fill: #0000ff; opacity: 0.9; stroke: #000000; stroke-width: 0.6; stroke-linejoin: miter"/>
   </g>
   <g id="patch_6">
    <path d="M 96.162 219.48 
L 114.762 219.48 
L 114.762 208.32 
L 96.162 208.32 
z
" clip-path="url(#p1fe9249936)" style="fill: #ff0000; opacity: 0.9; stroke: #000000; stroke-width: 0.6; stroke-linejoin: miter"/>
   </g>
   <g id="patch_7">
    <path d="M 108.438 219.48 
L 127.038 219.48 
L 127.038 208.32 
L 108.438 208.32 
z
" clip-path="url(#p1fe9249936)" style="fill: #ff8000; opacity: 0.9; stroke: #000000; stroke-width: 0.6; stroke-linejoin: miter"/>
   </g>
   <g id="patch_8">
    <path d="M 119.97 107.88 
L 138.57 107.88 
L 138.57 96.72 
L 119.97 96.72 
z
" clip-path="url(#p1fe9249936)" style="fill: #ff0000; opacity: 0.9; stroke: #000000; stroke-width: 0.6; stroke-linejoin: miter"/>
   </g>
   <g id="patch_9">
    <path d="M 136.71 107.88 
L 155.31 107.88 
L 155.31 96.72 
L 136.71 96.72 
z
" clip-path="url(#p1fe9249936)" style="fill: #cccccc; opacity: 0.9; stroke: #000000; stroke-width: 0.6; stroke-linejoin: miter"/>
   </g>
   <g id="patch_10">
    <path d="M 140.802 219.48 
L 159.402 219.48 
L 159.402 208.32 
L 140.802 208.32 
z
" clip-path="url(#p1fe9249936)" style="fill: #ff0000; opacity: 0.9; stroke: #000000; stroke-width: 0.6; stroke-linejoin: miter"/>
   </g>
   <g id="patch_11">
    <path d="M 153.078 219.48 
L 171.678 219.48 
L 171.678 208.32 
L 153.078 208.32 
z
" clip-path="url(#p1fe9249936)" style="fill: #008000; opacity: 0.9; stroke: #000000; stroke-width: 0.6; stroke-linejoin: miter"/>
   </g>
   <g id="patch_12">
    <path d="M 185.442 219.48 
L 204.042 219.48 
L 204.042 208.32 
L 185.442 208.32 
z
" clip-path="url(#p1fe9249936)" style="fill: #ff0000; opacity: 0.9; stroke: #000000; stroke-width: 0.6; stroke-linejoin: miter"/>
   </g>
   <g id="patch_13">
    <path d="M 197.718 219.48 
L 216.318 219.48 
L 216.318 208.32 
L 197.718 208.32 
z
" clip-path="url(#p1fe9249936)" style="fill: #cccccc; opacity: 0.9; stroke: #000000; stroke-width: 0.6; stroke-linejoin: miter"/>
   </g>
   <g id="patch_14">
    <path d="M 236.22 219.48 
L 254.82 219.48 
L 254.82 208.32 
L 236.22 208.32 
z
" clip-path="url(#p1fe9249936)" style="fill: #ffff00; opacity: 0.9; stroke: #000000; stroke-width: 0.6; stroke-linejoin: miter"/>
   </g>
   <g id="line2d_1">
    <path d="M 37.2 260.4 
L 409.2 260.4 
L 409.2 37.2 
L 37.2 37.2 
L 37.2 260.4 
" clip-path="url(#p1fe9249936)" style="fill: none; stroke: #000000; stroke-opacity: 0.7; stroke-width: 0.8; stroke-linecap: square"/>
   </g>
   <g id="line2d_2">
    <path d="M 46.5 251.1 
L 87.42 251.1 
L 87.42 176.7 
L 46.5 176.7 
L 46.5 251.1 
" clip-path="url(#p1fe9249936)" style="fill: none; stroke: #000000; stroke-opacity: 0.7; stroke-width: 0.8; stroke-linecap: square"/>
   </g>
   <g id="line2d_3">
    <path d="M 91.14 251.1 
L 132.06 251.1 
L 132.06 176.7 
L 91.14 176.7 
L 91.14 251.1 
" clip-path="url(#p1fe9249936)" style="fill: none; stroke: #000000; stroke-opacity: 0.7; stroke-width: 0.8; stroke-linecap: square"/>
   </g>
   <g id="line2d_4">
    <path d="M 135.78 251.1 
L 176.7 251.1 
L 176.7 176.7 
L 135.78 176.7 
L 135.78 251.1 
" clip-path="url(#p1fe9249936)" style="fill: none; stroke: #000000; stroke-opacity: 0.7; stroke-width: 0.8; stroke-linecap: square"/>
   </g>
   <g id="line2d_5">
    <path d="M 180.42 251.1 
L 221.34 251.1 
L 221.34 176.7 
L 180.42 176.7 
L 180.42 251.1 
" clip-path="url(#p1fe9249936)" style="fill: none; stroke: #000000; stroke-opacity: 0.7; stroke-width: 0.8; stroke-linecap: square"/>
   </g>
   <g id="line2d_6">
    <path d="M 225.06 251.1 
L 265.98 251.1 
L 265.98 176.7 
L 225.06 176.7 
L 225.06 251.1 
" clip-path="url(#p1fe9249936)" style="fill: none; stroke: #000000; stroke-opacity: 0.7; stroke-width: 0.8; stroke-linecap: square"/>
   </g>
   <g id="line2d_7">
    <path d="M 269.7 251.1 
L 310.62 251.1 
L 310.62 176.7 
L 269.7 176.7 
L 269.7 251.1 
" clip-path="url(#p1fe9249936)" style="fill: none; stroke: #000000; stroke-opacity: 0.7; stroke-width: 0.8; stroke-linecap: square"/>
   </g>
   <g id="line2d_8">
    <path d="M 314.34 251.1 
L 355.26 251.1 
L 355.26 176.7 
L 314.34 176.7 
L 314.34 251.1 
" clip-path="url(#p1fe9249936)" style="fill: none; stroke: #000000; stroke-opacity: 0.7; stroke-width: 0.8; stroke-linecap: square"/>
   </g>
   <g id="line2d_9">
    <path d="M 358.98 251.1 
L 399.9 251.1 
L 399.9 176.7 
L 358.98 176.7 
L 358.98 251.1 
" clip-path="url(#p1fe9249936)" style="fill: none; stroke: #000000; stroke-opacity: 0.7; stroke-width: 0.8; stroke-linecap: square"/>
   </g>
   <g id="line2d_10">
    <path d="M 46.5 158.1 
L 102.3 158.1 
L 102.3 46.5 
L 46.5 46.5 
L 46.5 158.1 
" clip-path="url(#p1fe9249936)" style="fill: none; stroke: #000000; stroke-opacity: 0.7; stroke-width: 0.8; stroke-linecap: square"/>
   </g>
   <g id="line2d_11">
    <path d="M 109.74 158.1 
L 165.54 158.1 
L 165.54 46.5 
L 109.74 46.5 
L 109.74 158.1 
" clip-path="url(#p1fe9249936)" style="fill: none; stroke: #000000; stroke-opacity: 0.7; stroke-width: 0.8; stroke-linecap: square"/>
   </g>
   <g id="line2d_12">
    <path d="M 172.98 158.1 
L 228.78 158.1 
L 228.78 46.5 
L 172.98 46.5 
L 172.98 158.1 
" clip-path="url(#p1fe9249936)" style="fill: none; stroke: #000000; stroke-opacity: 0.7; stroke-width: 0.8; stroke-linecap: square"/>
   </g>
   <g id="line2d_13">
    <path d="M 236.22 158.1 
L 292.02 158.1 
L 292.02 46.5 
L 236.22 46.5 
L 236.22 158.1 
" clip-path="url(#p1fe9249936)" style="fill: none; stroke: #000000; stroke-opacity: 0.7; stroke-width: 0.8; stroke-linecap: square"/>
   </g>
   <g id="line2d_14">
    <path d="M 316.2 241.8 
L 334.8 241.8 
L 334.8 230.64 
L 316.2 230.64 
L 316.2 241.8 
" clip-path="url(#p1fe9249936)" style="fill: none; stroke: #000000; stroke-opacity: 0.7; stroke-width: 0.8; stroke-linecap: square"/>
   </g>
   <g id="text_1">
    <!-- E001 -->
    <g style="fill: #ffffff" transform="translate(53.200125 215.555625) scale(0.06 -0.06)">
     <defs>
      <path id="DejaVuSans-45" d="M 628 4666 
L 3578 4666 
L 3578 4134 
L 1259 4134 
L 1259 2753 
L 3481 2753 
L 3481 2222 
L 1259 2222 
L 1259 531 
L 3634 531 
L 3634 0 
L 628 0 
L 628 4666 
z
" transform="scale(0.015625)"/>
      <path id="DejaVuSans-30" d="M 2034 4250 
Q 1547 4250 1301 3770 
Q 1056 3291 1056 2328 
Q 1056 1369 1301 889 
Q 1547 409 2034 409 
Q 2525 409 2770 889 
Q 3016 1369 3016 2328 
Q 3016 3291 2770 3770 
Q 2525 4250 2034 4250 
z
M 2034 4750 
Q 2819 4750 3233 4129 
Q 3647 3509 3647 2328 
Q 3647 1150 3233 529 
Q 2819 -91 2034 -91 
Q 1250 -91 836 529 
Q 422 1150 422 2328 
Q 422 3509 836 4129 
Q 1250 4750 2034 4750 
z
" transform="scale(0.015625)"/>
      <path id="DejaVuSans-31" d="M 794 531 
L 1825 531 
L 1825 4091 
L 703 3866 
L 703 4441 
L 1819 4666 
L 2450 4666 
L 2450 531 
L 3481 531 
L 3481 0 
L 794 0 
L 794 531 
z
" transform="scale(0.015625)"/>
     </defs>
     <use xlink:href="#DejaVuSans-45"/>
     <use xlink:href="#DejaVuSans-30" transform="translate(63.183594 0)"/>
     <use xlink:href="#DejaVuSans-30" transform="translate(126.806641 0)"/>
     <use xlink:href="#DejaVuSans-31" transform="translate(190.429688 0)"/>
    </g>
   </g>
   <g id="text_2">
    <!-- E013 -->
    <g style="fill: #ffffff" transform="translate(65.476125 215.555625) scale(0.06 -0.06)">
     <defs>
      <path id="DejaVuSans-33" d="M 2597 2516 
Q 3050 2419 3304 2112 
Q 3559 1806 3559 1356 
Q 3559 666 3084 287 
Q 2609 -91 1734 -91 
Q 1441 -91 1130 -33 
Q 819 25 488 141 
L 488 750 
Q 750 597 1062 519 
Q 1375 441 1716 441 
Q 2309 441 2620 675 
Q 2931 909 2931 1356 
Q 2931 1769 2642 2001 
Q 2353 2234 1838 2234 
L 1294 2234 
L 1294 2753 
L 1863 2753 
Q 2328 2753 2575 2939 
Q 2822 3125 2822 3475 
Q 2822 3834 2567 4026 
Q 2313 4219 1838 4219 
Q 1578 4219 1281 4162 
Q 984 4106 628 3988 
L 628 4550 
Q 988 4650 1302 4700 
Q 1616 4750 1894 4750 
Q 2613 4750 3031 4423 
Q 3450 4097 3450 3541 
Q 3450 3153 3228 2886 
Q 3006 2619 2597 2516 
z
" transform="scale(0.015625)"/>
     </defs>
     <use xlink:href="#DejaVuSans-45"/>
     <use xlink:href="#DejaVuSans-30" transform="translate(63.183594 0)"/>
     <use xlink:href="#DejaVuSans-31" transform="translate(126.806641 0)"/>
     <use xlink:href="#DejaVuSans-33" transform="translate(190.429688 0)"/>
    </g>
   </g>
   <g id="text_3">
    <!-- E004 -->
    <g style="fill: #ffffff" transform="translate(58.408125 103.955625) scale(0.06 -0.06)">
     <defs>
      <path id="DejaVuSans-34" d="M 2419 4116 
L 825 1625 
L 2419 1625 
L 2419 4116 
z
M 2253 4666 
L 3047 4666 
L 3047 1625 
L 3713 1625 
L 3713 1100 
L 3047 1100 
L 3047 0 
L 2419 0 
L 2419 1100 
L 313 1100 
L 313 1709 
L 2253 4666 
z
" transform="scale(0.015625)"/>
     </defs>
     <use xlink:href="#DejaVuSans-45"/>
     <use xlink:href="#DejaVuSans-30" transform="translate(63.183594 0)"/>
     <use xlink:href="#DejaVuSans-30" transform="translate(126.806641 0)"/>
     <use xlink:href="#DejaVuSans-34" transform="translate(190.429688 0)"/>
    </g>
   </g>
   <g id="text_4">
    <!-- E016 -->
    <g style="fill: #ffffff" transform="translate(75.148125 103.955625) scale(0.06 -0.06)">
     <defs>
      <path id="DejaVuSans-36" d="M 2113 2584 
Q 1688 2584 1439 2293 
Q 1191 2003 1191 1497 
Q 1191 994 1439 701 
Q 1688 409 2113 409 
Q 2538 409 2786 701 
Q 3034 994 3034 1497 
Q 3034 2003 2786 2293 
Q 2538 2584 2113 2584 
z
M 3366 4563 
L 3366 3988 
Q 3128 4100 2886 4159 
Q 2644 4219 2406 4219 
Q 1781 4219 1451 3797 
Q 1122 3375 1075 2522 
Q 1259 2794 1537 2939 
Q 1816 3084 2150 3084 
Q 2853 3084 3261 2657 
Q 3669 2231 3669 1497 
Q 3669 778 3244 343 
Q 2819 -91 2113 -91 
Q 1303 -91 875 529 
Q 447 1150 447 2328 
Q 447 3434 972 4092 
Q 1497 4750 2381 4750 
Q 2619 4750 2861 4703 
Q 3103 4656 3366 4563 
z
" transform="scale(0.015625)"/>
     </defs>
     <use xlink:href="#DejaVuSans-45"/>
     <use xlink:href="#DejaVuSans-30" transform="translate(63.183594 0)"/>
     <use xlink:href="#DejaVuSans-31" transform="translate(126.806641 0)"/>
     <use xlink:href="#DejaVuSans-36" transform="translate(190.429688 0)"/>
    </g>
   </g>
   <g id="text_5">
    <!-- E005 -->
    <g style="fill: #ffffff" transform="translate(97.840125 215.555625) scale(0.06 -0.06)">
     <defs>
      <path id="DejaVuSans-35" d="M 691 4666 
L 3169 4666 
L 3169 4134 
L 1269 4134 
L 1269 2991 
Q 1406 3038 1543 3061 
Q 1681 3084 1819 3084 
Q 2600 3084 3056 2656 
Q 3513 2228 3513 1497 
Q 3513 744 3044 326 
Q 2575 -91 1722 -91 
Q 1428 -91 1123 -41 
Q 819 9 494 109 
L 494 744 
Q 775 591 1075 516 
Q 1375 441 1709 441 
Q 2250 441 2565 725 
Q 2881 1009 2881 1497 
Q 2881 1984 2565 2268 
Q 2250 2553 1709 2553 
Q 1456 2553 1204 2497 
Q 953 2441 691 2322 
L 691 4666 
z
" transform="scale(0.015625)"/>
     </defs>
     <use xlink:href="#DejaVuSans-45"/>
     <use xlink:href="#DejaVuSans-30" transform="translate(63.183594 0)"/>
     <use xlink:href="#DejaVuSans-30" transform="translate(126.806641 0)"/>
     <use xlink:href="#DejaVuSans-35" transform="translate(190.429688 0)"/>
    </g>
   </g>
   <g id="text_6">
    <!-- E017 -->
    <g style="fill: #ffffff" transform="translate(110.116125 215.555625) scale(0.06 -0.06)">
     <defs>
      <path id="DejaVuSans-37" d="M 525 4666 
L 3525 4666 
L 3525 4397 
L 1831 0 
L 1172 0 
L 2766 4134 
L 525 4134 
L 525 4666 
z
" transform="scale(0.015625)"/>
     </defs>
     <use xlink:href="#DejaVuSans-45"/>
     <use xlink:href="#DejaVuSans-30" transform="translate(63.183594 0)"/>
     <use xlink:href="#DejaVuSans-31" transform="translate(126.806641 0)"/>
     <use xlink:href="#DejaVuSans-37" transform="translate(190.429688 0)"/>
    </g>
   </g>
   <g id="text_7">
    <!-- E009 -->
    <g style="fill: #ffffff" transform="translate(121.648125 103.955625) scale(0.06 -0.06)">
     <defs>
      <path id="DejaVuSans-39" d="M 703 97 
L 703 672 
Q 941 559 1184 500 
Q 1428 441 1663 441 
Q 2288 441 2617 861 
Q 2947 1281 2994 2138 
Q 2813 1869 2534 1725 
Q 2256 1581 1919 1581 
Q 1219 1581 811 2004 
Q 403 2428 403 3163 
Q 403 3881 828 4315 
Q 1253 4750 1959 4750 
Q 2769 4750 3195 4129 
Q 3622 3509 3622 2328 
Q 3622 1225 3098 567 
Q 2575 -91 1691 -91 
Q 1453 -91 1209 -44 
Q 966 3 703 97 
z
M 1959 2075 
Q 2384 2075 2632 2365 
Q 2881 2656 2881 3163 
Q 2881 3666 2632 3958 
Q 2384 4250 1959 4250 
Q 1534 4250 1286 3958 
Q 1038 3666 1038 3163 
Q 1038 2656 1286 2365 
Q 1534 2075 1959 2075 
z
" transform="scale(0.015625)"/>
     </defs>
     <use xlink:href="#DejaVuSans-45"/>
     <use xlink:href="#DejaVuSans-30" transform="translate(63.183594 0)"/>
     <use xlink:href="#DejaVuSans-30" transform="translate(126.806641 0)"/>
     <use xlink:href="#DejaVuSans-39" transform="translate(190.429688 0)"/>
    </g>
   </g>
   <g id="text_8">
    <!-- E021 -->
    <g style="fill: #ffffff" transform="translate(138.388125 103.955625) scale(0.06 -0.06)">
     <defs>
      <path id="DejaVuSans-32" d="M 1228 531 
L 3431 531 
L 3431 0 
L 469 0 
L 469 531 
Q 828 903 1448 1529 
Q 2069 2156 2228 2338 
Q 2531 2678 2651 2914 
Q 2772 3150 2772 3378 
Q 2772 3750 2511 3984 
Q 2250 4219 1831 4219 
Q 1534 4219 1204 4116 
Q 875 4013 500 3803 
L 500 4441 
Q 881 4594 1212 4672 
Q 1544 4750 1819 4750 
Q 2544 4750 2975 4387 
Q 3406 4025 3406 3419 
Q 3406 3131 3298 2873 
Q 3191 2616 2906 2266 
Q 2828 2175 2409 1742 
Q 1991 1309 1228 531 
z
" transform="scale(0.015625)"/>
     </defs>
     <use xlink:href="#DejaVuSans-45"/>
     <use xlink:href="#DejaVuSans-30" transform="translate(63.183594 0)"/>
     <use xlink:href="#DejaVuSans-32" transform="translate(126.806641 0)"/>
     <use xlink:href="#DejaVuSans-31" transform="translate(190.429688 0)"/>
    </g>
   </g>
   <g id="text_9">
    <!-- E008 -->
    <g style="fill: #ffffff" transform="translate(142.480125 215.555625) scale(0.06 -0.06)">
     <defs>
      <path id="DejaVuSans-38" d="M 2034 2216 
Q 1584 2216 1326 1975 
Q 1069 1734 1069 1313 
Q 1069 891 1326 650 
Q 1584 409 2034 409 
Q 2484 409 2743 651 
Q 3003 894 3003 1313 
Q 3003 1734 2745 1975 
Q 2488 2216 2034 2216 
z
M 1403 2484 
Q 997 2584 770 2862 
Q 544 3141 544 3541 
Q 544 4100 942 4425 
Q 1341 4750 2034 4750 
Q 2731 4750 3128 4425 
Q 3525 4100 3525 3541 
Q 3525 3141 3298 2862 
Q 3072 2584 2669 2484 
Q 3125 2378 3379 2068 
Q 3634 1759 3634 1313 
Q 3634 634 3220 271 
Q 2806 -91 2034 -91 
Q 1263 -91 848 271 
Q 434 634 434 1313 
Q 434 1759 690 2068 
Q 947 2378 1403 2484 
z
M 1172 3481 
Q 1172 3119 1398 2916 
Q 1625 2713 2034 2713 
Q 2441 2713 2670 2916 
Q 2900 3119 2900 3481 
Q 2900 3844 2670 4047 
Q 2441 4250 2034 4250 
Q 1625 4250 1398 4047 
Q 1172 3844 1172 3481 
z
" transform="scale(0.015625)"/>
     </defs>
     <use xlink:href="#DejaVuSans-45"/>
     <use xlink:href="#DejaVuSans-30" transform="translate(63.183594 0)"/>
     <use xlink:href="#DejaVuSans-30" transform="translate(126.806641 0)"/>
     <use xlink:href="#DejaVuSans-38" transform="translate(190.429688 0)"/>
    </g>
   </g>
   <g id="text_10">
    <!-- E020 -->
    <g style="fill: #ffffff" transform="translate(154.756125 215.555625) scale(0.06 -0.06)">
     <use xlink:href="#DejaVuSans-45"/>
     <use xlink:href="#DejaVuSans-30" transform="translate(63.183594 0)"/>
     <use xlink:href="#DejaVuSans-32" transform="translate(126.806641 0)"/>
     <use xlink:href="#DejaVuSans-30" transform="translate(190.429688 0)"/>
    </g>
   </g>
   <g id="text_11">
    <!-- E010 -->
    <g style="fill: #ffffff" transform="translate(187.120125 215.555625) scale(0.06 -0.06)">
     <use xlink:href="#DejaVuSans-45"/>
     <use xlink:href="#DejaVuSans-30" transform="translate(63.183594 0)"/>
     <use xlink:href="#DejaVuSans-31" transform="translate(126.806641 0)"/>
     <use xlink:href="#DejaVuSans-30" transform="translate(190.429688 0)"/>
    </g>
   </g>
   <g id="text_12">
    <!-- E022 -->
    <g style="fill: #ffffff" transform="translate(199.396125 215.555625) scale(0.06 -0.06)">
     <use xlink:href="#DejaVuSans-45"/>
     <use xlink:href="#DejaVuSans-30" transform="translate(63.183594 0)"/>
     <use xlink:href="#DejaVuSans-32" transform="translate(126.806641 0)"/>
     <use xlink:href="#DejaVuSans-32" transform="translate(190.429688 0)"/>
    </g>
   </g>
   <g id="text_13">
    <!-- E012 -->
    <g style="fill: #ffffff" transform="translate(237.898125 215.555625) scale(0.06 -0.06)">
     <use xlink:href="#DejaVuSans-45"/>
     <use xlink:href="#DejaVuSans-30" transform="translate(63.183594 0)"/>
     <use xlink:href="#DejaVuSans-31" transform="translate(126.806641 0)"/>
     <use xlink:href="#DejaVuSans-32" transform="translate(190.429688 0)"/>
    </g>
   </g>
  </g>
 </g>
 <defs>
  <clipPath id="p1fe9249936">
   <rect x="0" y="0" width="446.4" height="297.6"/>
  </clipPath>
 </defs>
</svg>
